<!-- icon666.com - MILLIONS vector ICONS FREE --><svg viewBox="0 0 64 64" xmlns="http://www.w3.org/2000/svg"><g id="Icons"><g><g><g><g><g><path d="m14 60h-8l4-10h8zm28 0h8l-4-10h-8zm-10-8h-8v8h8z" fill="#c80a50" style="fill: rgb(199, 76, 10);"></path></g></g></g></g><g><g><g><g><g><path d="m24 52h8v1h-8z" fill="#a00028" style="fill: rgb(13, 86, 231);"></path></g></g></g></g><g><g><g><g><path d="m16.8 53 1.2-3h-8l-.103.257c-.525 1.314.442 2.743 1.857 2.743z" fill="#a00028" style="fill: rgb(13, 86, 231);"></path></g></g></g></g><g><g><g><g><path d="m46 50h-8l1.2 3h5.046c1.415 0 2.382-1.429 1.857-2.743z" fill="#a00028" style="fill: rgb(13, 86, 231);"></path></g></g></g></g></g><g><g><g><g><path d="m46 32h-36c-1.105 0-2-.895-2-2v-20c0-1.105.895-2 2-2h36c1.105 0 2 .895 2 2v20c0 1.105-.895 2-2 2z" fill="#fab400"></path></g></g></g></g><g><g><g><g><circle cx="28" cy="21" fill="#dc9600" r="8" style="fill: rgb(219, 183, 0);"></circle></g></g></g></g><g><g><g><g><path d="m54 28h-6v-16h6c1.105 0 2 .895 2 2v12c0 1.105-.895 2-2 2z" fill="#0a5078"></path></g></g></g></g><g><g><g><g><path d="m34 4h-12c-1.105 0-2 .895-2 2v2h16v-2c0-1.105-.895-2-2-2z" fill="#0a5078"></path></g></g></g></g><g><g><g><g><path d="m8 18h40v4h-40z" fill="#c80a50" style="fill: rgb(199, 76, 10);"></path></g></g></g></g><g><g><g><g><path d="m8 18h40v1h-40z" fill="#a00028" style="fill: rgb(13, 86, 231);"></path></g></g></g></g><g><g><g><g><circle cx="28" cy="20" fill="#00325a" r="8"></circle></g></g></g></g><g><g><g><g><circle cx="28" cy="20" fill="#0a5078" r="4"></circle></g></g></g></g><g><g><g><g><path d="m39 32v-1c0-.552-.448-1-1-1h-20c-.552 0-1 .448-1 1v1h-3v4h28v-4z" fill="#00a0c8"></path></g></g></g></g><g><g><g><g><path d="m31 34c0-1.657-1.343-3-3-3s-3 1.343-3 3c0 .768.289 1.469.765 2h4.471c.475-.531.764-1.232.764-2z" fill="#0082aa" style="fill: rgb(0, 42, 168);"></path></g></g></g></g><g><g><g><g><path d="m43 40h-30c-.552 0-1-.448-1-1v-2c0-.552.448-1 1-1h30c.552 0 1 .448 1 1v2c0 .552-.448 1-1 1z" fill="#0a5078"></path></g></g></g></g><g><g><g><g><path d="m44 52h-32c-1.105 0-2-.895-2-2 0-1.105.895-2 2-2h32c1.105 0 2 .895 2 2 0 1.105-.895 2-2 2z" fill="#fab400"></path></g></g></g></g><g><g><g><g><circle cx="28" cy="33" fill="#c80a50" r="3" style="fill: rgb(199, 76, 10);"></circle></g></g></g></g><g><g><g><g><circle cx="28" cy="33" fill="#a00028" r="1" style="fill: rgb(13, 86, 231);"></circle></g></g></g></g><g><g><g><g><path d="m14 40h4v4h-4z" fill="#c80a50" style="fill: rgb(199, 76, 10);"></path></g></g></g></g><g><g><g><g><path d="m20 48h-8v-3c0-.552.448-1 1-1h6c.552 0 1 .448 1 1z" fill="#0a5078"></path></g></g></g></g><g><g><g><g><path d="m26 40h4v4h-4z" fill="#c80a50" style="fill: rgb(199, 76, 10);"></path></g></g></g></g><g><g><g><g><path d="m32 48h-8v-3c0-.552.448-1 1-1h6c.552 0 1 .448 1 1z" fill="#0a5078"></path></g></g></g></g><g><g><g><g><path d="m38 40h4v4h-4z" fill="#c80a50" style="fill: rgb(199, 76, 10);"></path></g></g></g></g><g><g><g><g><path d="m44 48h-8v-3c0-.552.448-1 1-1h6c.552 0 1 .448 1 1z" fill="#0a5078"></path></g></g></g></g><g><g><g><g><path d="m14 32h3v1h-3z" fill="#0082aa" style="fill: rgb(0, 42, 168);"></path></g></g></g></g><g><g><g><g><path d="m39 32h3v1h-3z" fill="#0082aa" style="fill: rgb(0, 42, 168);"></path></g></g></g></g><g><g><g><g><path d="m20 7h16v1h-16z" fill="#00325a"></path></g></g></g></g><g><g><g><g><path d="m48 12h1v16h-1z" fill="#00325a"></path></g></g></g></g><g><g><g><g><path d="m14 40h4v1h-4z" fill="#a00028" style="fill: rgb(13, 86, 231);"></path></g></g></g></g><g><g><g><g><path d="m26 40h4v1h-4z" fill="#a00028" style="fill: rgb(13, 86, 231);"></path></g></g></g></g><g><g><g><g><path d="m38 40h4v1h-4z" fill="#a00028" style="fill: rgb(13, 86, 231);"></path></g></g></g></g><g><g><g><g><path d="m18 47v-3h-1v3h-2v-3h-1v3h-2v1h8v-1z" fill="#00325a"></path></g></g></g></g><g><g><g><g><path d="m30 47v-3h-1v3h-2v-3h-1v3h-2v1h8v-1z" fill="#00325a"></path></g></g></g></g><g><g><g><g><path d="m42 47v-3h-1v3h-2v-3h-1v3h-2v1h8v-1z" fill="#00325a"></path></g></g></g></g><g><g><g><g><path d="m17 38c-.552 0-1-.448-1-1v-1h2v1c0 .552-.448 1-1 1z" fill="#00325a"></path></g></g></g></g><g><g><g><g><path d="m28 38c-.552 0-1-.448-1-1v-1h2v1c0 .552-.448 1-1 1z" fill="#00325a"></path></g></g></g></g><g><g><g><g><path d="m39 38c-.552 0-1-.448-1-1v-1h2v1c0 .552-.448 1-1 1z" fill="#00325a"></path></g></g></g></g></g></g></svg>